<svg version="1.0" xmlns="http://www.w3.org/2000/svg"
 width="1848.000000pt" height="1198.000000pt" viewBox="0 0 1848.000000 1198.000000"
 preserveAspectRatio="xMidYMid meet">
<g transform="translate(0.000000,1198.000000) scale(0.100000,-0.100000)"
fill="#000000" stroke="none">
<path d="M170 7370 l0 -4520 9120 0 9120 0 0 4520 0 4520 -9120 0 -9120 0 0
-4520z m17410 0 l0 -3700 -8295 0 -8295 0 0 3700 0 3700 8295 0 8295 0 0
-3700z"/>
<path d="M12471 10739 c-123 -22 -255 -83 -360 -167 -104 -84 -219 -268 -257
-412 -22 -85 -22 -271 0 -362 64 -271 285 -495 560 -569 90 -25 282 -26 375
-3 213 52 407 213 506 419 59 122 77 197 77 325 0 142 -21 235 -79 350 -40 80
-63 110 -148 196 -89 90 -111 107 -196 148 -53 25 -123 53 -155 61 -73 20
-250 27 -323 14z"/>
<path d="M15650 10735 c-118 -23 -176 -47 -290 -119 -56 -36 -167 -146 -209
-209 -45 -66 -91 -171 -91 -206 0 -16 -5 -31 -10 -33 -11 -3 -18 -49 -27 -178
-12 -178 71 -391 211 -538 100 -105 188 -162 326 -213 58 -22 81 -24 225 -24
199 0 238 10 414 106 61 34 175 141 222 210 21 32 39 60 39 64 0 3 11 22 24
43 22 35 37 78 65 188 13 49 15 271 2 278 -4 3 -8 24 -8 47 0 23 -5 44 -10 48
-6 3 -13 22 -17 41 -6 38 -71 152 -121 217 -52 66 -106 114 -192 170 -161 105
-364 144 -553 108z"/>
<path d="M8570 9975 c-527 -60 -1005 -240 -1378 -519 -129 -97 -341 -301 -427
-411 -282 -361 -444 -745 -520 -1235 -22 -142 -31 -508 -16 -684 76 -904 564
-1660 1332 -2060 288 -150 546 -234 894 -288 189 -29 635 -37 835 -14 390 45
740 152 1060 326 641 348 1092 967 1239 1700 64 321 74 723 26 1060 -60 412
-229 820 -478 1150 -98 129 -319 349 -449 446 -364 271 -810 446 -1328 520
-161 22 -622 28 -790 9z m571 -1076 c217 -28 427 -109 599 -230 95 -67 244
-211 315 -303 191 -252 305 -612 305 -969 0 -469 -153 -875 -434 -1152 -198
-196 -427 -321 -696 -380 -113 -25 -399 -31 -525 -11 -261 40 -494 146 -696
319 -227 194 -402 510 -471 850 -20 100 -23 140 -23 367 1 227 3 267 23 360
47 213 117 387 229 560 66 102 245 282 353 356 160 110 384 201 557 228 109
17 351 20 464 5z"/>
<path d="M2200 7370 l0 -2490 590 0 590 0 0 990 0 990 206 -2 206 -3 541 -987
541 -988 698 0 c384 0 698 2 698 5 0 6 -155 261 -793 1308 -268 438 -488 802
-490 808 -1 6 41 26 93 45 353 127 646 375 790 669 100 205 130 333 137 595
10 376 -51 616 -218 861 -221 322 -557 527 -1019 623 -293 61 -248 59 -1457
63 l-1113 4 0 -2491z m1985 1520 c367 -34 571 -171 630 -422 29 -124 11 -279
-46 -404 -32 -69 -147 -180 -234 -226 -177 -92 -296 -109 -787 -115 l-388 -5
0 585 c0 459 3 586 13 590 23 10 702 7 812 -3z"/>
<path d="M7265 2041 c-252 -68 -421 -227 -495 -466 -18 -56 -22 -94 -22 -195
1 -240 49 -367 197 -516 74 -75 105 -99 175 -133 113 -55 193 -71 365 -71 163
0 220 12 342 70 60 30 104 61 167 121 74 69 93 95 131 173 63 127 79 197 79
341 0 143 -16 213 -76 335 -75 154 -218 271 -403 330 -101 33 -358 39 -460 11z
m325 -277 c185 -55 297 -245 270 -459 -21 -165 -86 -263 -220 -328 -59 -29
-74 -32 -160 -32 -84 0 -102 3 -157 29 -151 70 -241 232 -230 415 10 180 93
305 243 366 71 29 173 33 254 9z"/>
<path d="M13471 2040 c-261 -70 -449 -262 -503 -513 -17 -82 -5 -330 20 -400
41 -112 84 -180 172 -267 149 -150 280 -200 525 -200 212 0 327 35 472 144
104 79 202 228 239 367 22 81 25 290 5 369 -60 241 -224 414 -466 490 -104 33
-359 39 -464 10z m346 -280 c145 -50 229 -157 255 -323 41 -264 -116 -483
-357 -495 -203 -10 -361 113 -404 316 -52 246 81 476 302 522 54 11 138 3 204
-20z"/>
<path d="M1000 1360 l0 -680 155 0 155 0 0 270 0 270 63 0 62 -1 146 -267 145
-267 176 0 c97 0 179 3 182 6 4 3 -68 129 -159 280 -91 150 -165 278 -165 284
0 6 25 23 55 38 77 37 139 98 175 170 28 56 30 68 30 166 0 96 -3 112 -29 166
-49 103 -142 175 -276 212 -42 12 -399 29 -672 32 l-43 1 0 -680z m563 405
c97 -9 154 -72 145 -160 -6 -53 -31 -92 -75 -118 -36 -20 -174 -39 -259 -35
l-59 3 -3 140 c-4 199 -12 185 106 179 53 -2 119 -7 145 -9z"/>
<path d="M3100 2031 l-45 -6 -173 -410 c-328 -780 -384 -917 -377 -923 4 -4
79 -9 168 -10 l162 -4 50 134 50 133 267 3 266 2 54 -136 53 -136 167 4 c92 2
170 6 173 10 3 3 -119 308 -272 677 l-278 671 -110 -2 c-60 0 -130 -4 -155 -7z
m128 -406 c5 -16 40 -111 76 -209 36 -99 66 -185 66 -193 0 -10 -34 -13 -165
-13 -91 0 -165 3 -165 8 0 20 165 451 170 445 4 -5 12 -21 18 -38z"/>
<path d="M5110 2024 c-6 -11 -71 -122 -144 -247 -73 -126 -137 -229 -142 -230
-5 0 -72 108 -149 241 l-140 242 -194 0 -193 0 18 -27 c10 -16 123 -189 251
-385 l233 -358 0 -290 0 -290 160 0 160 0 0 289 0 288 256 382 c141 211 253
386 249 389 -3 4 -84 8 -180 10 -161 4 -174 3 -185 -14z"/>
<path d="M8820 1360 l0 -680 160 0 160 0 0 265 0 265 260 0 260 0 0 135 0 135
-260 0 -260 0 0 140 0 140 285 0 285 0 0 140 0 140 -445 0 -445 0 0 -680z"/>
<path d="M11218 2033 l-48 -4 0 -670 0 -669 83 0 c46 0 118 -3 160 -6 l77 -7
0 287 0 286 265 0 265 0 0 -285 0 -285 165 0 165 0 0 680 0 680 -165 0 -165 0
0 -260 0 -260 -265 0 -265 0 0 260 0 260 -112 -2 c-62 -1 -134 -3 -160 -5z"/>
<path d="M15030 1361 l0 -681 160 0 160 0 0 255 0 255 28 0 c91 1 290 22 344
35 239 62 350 221 320 459 -19 144 -79 228 -206 287 -93 43 -199 56 -518 64
l-288 7 0 -681z m619 394 c57 -34 76 -68 76 -140 0 -54 -4 -68 -25 -91 -45
-48 -101 -65 -231 -71 l-119 -6 0 160 c0 88 3 163 8 167 4 5 63 6 132 4 102
-3 132 -7 159 -23z"/>
<path d="M16640 1358 l0 -678 470 0 470 0 0 140 0 140 -315 0 -315 0 0 140 0
140 280 0 280 0 0 130 0 130 -280 0 -280 0 0 130 0 130 300 0 300 0 -6 133
c-4 72 -7 133 -8 133 0 1 -202 4 -449 5 l-447 4 0 -677z"/>
</g>
</svg>
